# xmcd
#
# Track frame offsets:
#	150
#	13139
#	33455
#	48607
#	64817
#	82943
#	102478
#	122546
#	141172
#	162307
#	179514
#	201980
#	217095
#
# Disc length: 3209 seconds
#
# Revision: 2
# Processed by: cddbd v1.5.1PL0 Copyright (c) Steve Scherf et al.
# Submitted via: audiograbber 1.83.01
#
DISCID=c10c870d
DTITLE=KRS One - Return of the Boom Bap
DYEAR=1900
DGENRE=
TTITLE0=Krs One Attacks
TTITLE1=Outta here
TTITLE2=Black Cop
TTITLE3=Mortal Thought
TTITLE4=I can´t wake up
TTITLE5=Slap them up
TTITLE6=Sound of da police
TTITLE7=Mad Crew
TTITLE8=Uh Oh
TTITLE9=Brown Skin Woman
TTITLE10=Return of the Boom Bap
TTITLE11="P" is still free
TTITLE12=Stop fronti´n
EXTD=
EXTT0=
EXTT1=
EXTT2=
EXTT3=
EXTT4=
EXTT5=
EXTT6=
EXTT7=
EXTT8=
EXTT9=
EXTT10=
EXTT11=
EXTT12=
PLAYORDER=
